<svg id="svg" class="work-area geBackgroundPage"><desc>Created with Snap</desc>
    <g class="entidad" x="0" y="0" id="entidad-0" transform="matrix(1,0,0,1,554,191)">
        <g class="cuadrado" style="cursor:move">
            <rect x="0" y="0" width="100" height="100" rx="0.5" ry="0.5" fill="#ffffff" stroke="#000000" style="stroke-width: 2px;"></rect>
        </g>
        <g>
            <rect x="0" y="0" width="100" height="30" rx="0.5" ry="0.5" fill="#ffffff" stroke="#000000" style="stroke-width: 2px;"></rect>
            <text class="titulo" x="20" y="20">Entidad</text>
            <circle class="closeButton" cx="100" cy="0" r="0" fill="#ff0000" stroke="#ff0000" style="stroke-width: 0px;"></circle>
			<text class="atributo" x="10" y="50">Atributo</text>
        </g>
        <g class="line-handlers" >
            <circle class="handler-1" cx="50" cy="0" r="0" fill="#78BF24" stroke="#ff0000" style="stroke-width: 0px;"></circle>
            <circle class="handler-2" cx="100" cy="50" r="0" fill="#78BF24" stroke="#ff0000" style="stroke-width: 0px;"></circle>
            <circle class="handler-3" cx="50" cy="100" r="0" fill="#78BF24" stroke="#ff0000" style="stroke-width: 0px;"></circle>
            <circle class="handler-4" cx="0" cy="50" r="0" fill="#ff0000" stroke="#ff0000" style="stroke-width: 0px;"></circle>
        </g>
    </g>
    <g class="entidad" x="0" y="0" id="entidad-1" transform="matrix(1,0,0,1,328,192)">
        <g class="cuadrado" style="cursor:move">
            <rect x="0" y="0" width="100" height="100" rx="0.5" ry="0.5" fill="#ffffff" stroke="#000000" style="stroke-width: 2px;"></rect>
        </g>
        <g>
            <rect x="0" y="0" width="100" height="30" rx="0.5" ry="0.5" fill="#ffffff" stroke="#000000" style="stroke-width: 2px;"></rect>
            <text class="titulo" x="20" y="20">Entidad</text>
            <circle class="closeButton" cx="100" cy="0" r="0" fill="#ff0000" stroke="#ff0000" style="stroke-width: 0px;"></circle>
			<text class="atributo" x="10" y="50">Atributo</text>
        </g>
        <g class="line-handlers">
            <circle class="handler-1" cx="50" cy="0" r="0" fill="#ff0000" stroke="#ff0000" style="stroke-width: 0px;"></circle>
            <circle class="handler-2" cx="100" cy="50" r="0" fill="#ff0000" stroke="#ff0000" style="stroke-width: 0px;"></circle>
            <circle class="handler-3" cx="50" cy="100" r="0" fill="#78BF24" stroke="#ff0000" style="stroke-width: 0px;"></circle>
            <circle class="handler-4" cx="0" cy="50" r="0" fill="#ff0000" stroke="#ff0000" style="stroke-width: 0px;"></circle>
        </g>
    </g>
    <g class="entidad" x="0" y="0" id="entidad-2" transform="matrix(1,0,0,1,106,193)">
        <g class="cuadrado" style="cursor:move">
            <rect x="0" y="0" width="100" height="100" rx="0.5" ry="0.5" fill="#ffffff" stroke="#000000" style="stroke-width: 2px;"></rect>
        </g>
        <g>
            <rect x="0" y="0" width="100" height="30" rx="0.5" ry="0.5" fill="#ffffff" stroke="#000000" style="stroke-width: 2px;"></rect>
            <text class="titulo" x="20" y="20">Entidad</text>
            <circle class="closeButton" cx="100" cy="0" r="0" fill="#ff0000" stroke="#ff0000" style="stroke-width: 0px;"></circle>
			<text class="atributo" x="10" y="50">Atributo</text>
        </g>
        <g class="line-handlers">
            <circle class="handler-1" cx="50" cy="0" r="0" fill="#78BF24" stroke="#ff0000" style="stroke-width: 0px;"></circle>
            <circle class="handler-2" cx="100" cy="50" r="0" fill="#ff0000" stroke="#ff0000" style="stroke-width: 0px;"></circle>
            <circle class="handler-3" cx="50" cy="100" r="0" fill="#78BF24" stroke="#ff0000" style="stroke-width: 0px;"></circle>
            <circle class="handler-4" cx="0" cy="50" r="0" fill="#78BF24" stroke="#ff0000" style="stroke-width: 0px;"></circle>
        </g>
    </g>
    <g class="relation">
        <text x="240.5" y="230">Relacion1</text>
        <line x1="214" x2="323" y1="241.5" y2="240.5" stroke="#000000" style="stroke-width: 2px; marker-start: url(#muchos);
                   marker-end: url(#uno-uno-reverse);" class="2-2-1-4"></line>
        <circle cx="240.5" cy="250" r="0" fill="#ff0000" stroke="#ff0000" style="stroke-width: 0px;" class="closeButton"></circle>
    </g>
    <g class="relation">
        <text x="458.5" y="230">Relacion3</text>
        <line x1="436" x2="549" y1="240.5" y2="239.5" stroke="#000000" style="stroke-width: 2px; marker-start: url(#uno);
                   marker-end: url(#uno-muchos-reverse);" class="1-2-0-4"></line>
        <circle cx="458.5" cy="250" r="0" fill="#ff0000" stroke="#ff0000" style="stroke-width: 0px;" class="closeButton"></circle>
    </g>
    <g class="entidad" x="0" y="0" id="entidad-3" transform="matrix(1,0,0,1,327,17)">
    <g class="cuadrado" style="cursor:move">
        <rect x="0" y="0" width="100" height="100" rx="0.5" ry="0.5" fill="#ffffff" stroke="#000000" style="stroke-width: 2px;"></rect>
    </g>
    <g>
        <rect x="0" y="0" width="100" height="30" rx="0.5" ry="0.5" fill="#ffffff" stroke="#000000" style="stroke-width: 2px;"></rect>
        <text class="titulo" x="20" y="20">Entidad</text>
        <circle class="closeButton" cx="100" cy="0" r="0" fill="#ff0000" stroke="#ff0000" style="stroke-width: 0px;"></circle>
		<text class="atributo" x="10" y="50">Atributo</text>
    </g>
    <g class="line-handlers">
        <circle class="handler-1" cx="50" cy="0" r="0" fill="#78BF24" stroke="#ff0000" style="stroke-width: 0px;"></circle>
        <circle class="handler-2" cx="100" cy="50" r="0" fill="#78BF24" stroke="#ff0000" style="stroke-width: 0px;"></circle>
        <circle class="handler-3" cx="50" cy="100" r="0" fill="#ff0000" stroke="#ff0000" style="stroke-width: 0px;"></circle>
        <circle class="handler-4" cx="0" cy="50" r="0" fill="#78BF24" stroke="#ff0000" style="stroke-width: 0px;"></circle>
    </g>
    </g>
    <g class="relation">
        <text x="278.5" y="154.49999237060547">Relacion2</text>
        <line x1="378.5" x2="379.5" y1="122" y2="184" stroke="#000000" style="stroke-width: 2px; marker-start: url(#cero-uno);
                   marker-end: url(#cero-muchos-reverse);" class="3-3-1-1"></line>
        <circle cx="278.5" cy="164" r="0" fill="#ff0000" stroke="#ff0000" style="stroke-width: 0px;" class="closeButton"></circle>
    </g>
</svg>